<svg width="174" height="174" viewBox="0 0 174 174" fill="none" xmlns="http://www.w3.org/2000/svg">
<path d="M65.5376 87.8403C65.2932 82.3775 65.4162 77.0051 65.9069 71.7232C66.3975 66.4413 67.2518 61.1645 68.4699 55.8928C66.8825 56.7336 65.4307 57.7394 64.1147 58.9101C62.7986 60.0809 61.5699 61.2905 60.4283 62.5389C53.6608 69.9406 50.4986 78.5921 50.9416 88.4935C51.3847 98.3948 55.3071 106.729 62.7087 113.497C63.9572 114.638 65.3095 115.711 66.7657 116.715C68.2218 117.719 69.7372 118.613 71.3118 119.398C69.6277 114.256 68.3055 109.077 67.345 103.86C66.3846 98.643 65.7821 93.3031 65.5376 87.8403ZM80.0113 87.3209C80.4009 96.0272 81.9167 104.576 84.5588 112.968C87.2008 121.36 90.9168 129.383 95.7067 137.037C87.9813 138.324 80.3706 137.873 72.8745 135.685C65.3785 133.498 58.7323 129.754 52.9358 124.454C42.5021 114.914 36.974 103.188 36.3514 89.2747C35.7288 75.3615 40.1874 63.1882 49.7272 52.7545C55.0271 46.958 61.3124 42.6356 68.583 39.7872C75.8537 36.9387 83.3938 35.8102 91.2032 36.4015C87.1161 44.4529 84.1316 52.7758 82.2497 61.37C80.3678 69.9642 79.6217 78.6145 80.0113 87.3209ZM109.997 132.42C108.621 130.344 107.308 128.243 106.059 126.118C104.809 123.993 103.663 121.799 102.621 119.537C104.802 118.584 106.803 117.425 108.624 116.061C110.444 114.696 112.17 113.122 113.8 111.339C120.568 103.937 123.728 95.2429 123.281 85.2562C122.834 75.2695 118.91 66.8923 111.509 60.1248C109.725 58.494 107.866 57.0805 105.931 55.8842C103.995 54.6879 101.899 53.7126 99.6416 52.9583C100.477 50.6117 101.425 48.367 102.483 46.2242C103.542 44.0814 104.664 41.9143 105.849 39.7231C108.723 40.8774 111.458 42.2731 114.054 43.9103C116.651 45.5474 119.108 47.4259 121.427 49.5459C131.86 59.0857 137.389 70.8122 138.011 84.7253C138.634 98.6385 134.175 110.812 124.635 121.245C122.515 123.564 120.236 125.655 117.796 127.517C115.356 129.38 112.757 131.014 109.997 132.42Z" fill="#E96363"/>
</svg>
